<svg xmlns="http://www.w3.org/2000/svg" version="1.1" xmlns:xlink="http://www.w3.org/1999/xlink" xmlns:svgjs="http://svgjs.dev/svgjs" width="100%" height="100%" viewBox="0 0 1000 600"><rect width="1000" height="600" x="0" y="0" fill="#737373"/><g><circle r="166.66666666666666" cx="489.31647745768225" cy="511.53861414184667" fill="#f2f2f2" transform="matrix(0.3874169692415897,0,0,0.3874169692415897,0,101.82124494770981)"/><path d="M436.2390215015482 539.8879004792713L362.5548122793725 505.5903804251476L362.5548122793725 493.84614400838996L436.2390215015482 459.24414375086883L436.2390215015482 475.83831483602825L380.171166904509 500.653451412918L380.171166904509 498.78307302061955L436.2390215015482 522.9022548468866L436.2390215015482 539.8879004792713ZM475.5387163257724 586.5386173569474L459.7274943350635 586.5386173569474L503.26816342089455 436.53862001180414L519.0793854116034 436.53862001180414L475.5387163257724 586.5386173569474ZM542.41561814342 539.8879004792713L616.0780787796388 505.5903804251476L616.0780787796388 493.84614400838996L542.41561814342 459.24414375086883L542.41561814342 475.83831483602825L598.4617241545022 500.653451412918L598.4617241545022 498.78307302061955L542.41561814342 522.9022548468866L542.41561814342 539.8879004792713Z " fill="#737373" transform="matrix(0.3874169692415897,0,0,0.3874169692415897,0,101.82124494770981)"/><path d="M760.8573797232315 585.0670370240962L739.3164470297934 585.0670370240962L739.3164470297934 449.3261772951281L818.0461456725948 449.3261772951281L818.0461456725948 465.76731320248723L760.8573797232315 465.76731320248723L760.8573797232315 508.69694584948047L803.609407507028 508.69694584948047L803.609407507028 525.1380817568396L760.8573797232315 525.1380817568396L760.8573797232315 585.0670370240962ZM857.1445876992004 585.0670370240962L836.1364695953528 585.0670370240962L836.1364695953528 483.50242739885147L857.1445876992004 483.50242739885147L857.1445876992004 585.0670370240962ZM845.4480388515267 465.51359196934897L845.4480388515267 465.51359196934897Q840.1452650789372 465.51359196934897 836.1618417186664 462.1137274452963Q832.2037904817096 458.73923504455746 832.2037904817096 452.90364668237754L832.2037904817096 452.90364668237754Q832.2037904817096 448.86947907547926 834.4365373333263 445.64721941462335Q836.6692841849431 442.39958763045365 840.1452650789372 440.4205620119752Q843.6212459729313 438.46690851681063 847.3509481000638 438.46690851681063L847.3509481000638 438.46690851681063Q853.8462116684032 438.46690851681063 857.1445876992004 442.12049427400154Q860.417591606684 445.7740800311925 860.417591606684 451.07685380378206L860.417591606684 451.07685380378206Q860.417591606684 457.3691403856109 855.901353656823 461.428680115823Q851.3851157069619 465.51359196934897 845.4480388515267 465.51359196934897ZM959.2420119140356 585.0670370240962L882.8972928627336 585.0670370240962L879.066102242346 577.7598655097144L927.4761135251256 506.51494324449146L932.7535151744014 499.03016686691285L884.5464808781323 499.03016686691285L884.5464808781323 483.3248225356547L957.9734057483442 483.3248225356547L961.068804792631 491.9006002157278L913.0393753595588 562.4097309048498L907.7366015869691 569.8945072824283L959.2420119140356 569.8945072824283L959.2420119140356 585.0670370240962ZM1052.966635435308 585.0670370240962L976.5965442606923 585.0670370240962L972.7653536403047 577.7598655097144L1021.1753649230843 506.51494324449146L1026.478138695674 499.03016686691285L978.2457322760911 499.03016686691285L978.2457322760911 483.3248225356547L1051.6980292696169 483.3248225356547L1054.7934283139036 491.9006002157278L1006.7386267575175 562.4097309048498L1001.4612251082417 569.8945072824283L1052.966635435308 569.8945072824283L1052.966635435308 585.0670370240962ZM1153.338755264803 483.0457291792026L1117.8177826254469 585.0670370240962L1095.1604765062004 585.0670370240962L1146.6912589565807 447.87996626624L1167.597888567173 447.87996626624L1218.3928794414524 585.0670370240962L1195.1012702393602 585.0670370240962L1161.204113492089 483.0457291792026L1157.3729228717013 469.9790856725823L1153.338755264803 483.0457291792026ZM1190.5342880428716 551.7280669897291L1120.7355768065368 551.7280669897291L1124.3891625637277 535.9212341652155L1186.67772529917 535.9212341652155L1190.5342880428716 551.7280669897291ZM1256.298831672308 585.0670370240962L1235.2907135684604 585.0670370240962L1235.2907135684604 483.50242739885147L1254.1929454372607 483.50242739885147L1254.269061807202 494.28557980722746Q1258.0241360576483 491.72299535253103 1263.732863803259 488.88131754138254Q1269.4415915488698 486.06501185354784 1276.0637157337783 484.0352419884418Q1282.685839918687 482.03084424664956 1289.2572198569678 481.8532393834528L1289.2572198569678 481.8532393834528Q1305.6222393943856 481.39654116380393 1312.7264339222568 490.30215644695676Q1319.8560005734419 499.20777173010964 1319.8560005734419 521.585984492904L1319.8560005734419 521.585984492904L1319.8560005734419 585.0670370240962L1298.6702776063973 585.0670370240962L1298.6702776063973 522.6769857953985Q1298.6702776063973 509.8894356452303 1295.2450409590308 504.33294063950245Q1291.8198043116643 498.75107351046074 1280.4023488204427 499.38537659330643L1280.4023488204427 499.38537659330643Q1277.2054612829006 499.48686508656175 1273.044433059433 500.5271221424286Q1268.8834048359658 501.5927513216093 1264.5447717493014 503.5464048167738Q1260.2061386626372 505.50005831193846 1256.298831672308 508.51934098628374L1256.298831672308 508.51934098628374L1256.298831672308 585.0670370240962ZM1431.848552880669 585.0670370240962L1411.9314360793157 585.0670370240962L1411.9314360793157 571.5436952978271L1410.840434776821 571.0108807082366L1410.840434776821 499.03016686691285L1411.5762263529223 498.4719801540087L1410.840434776821 478.37725848945865L1410.840434776821 436.5386271449599L1431.848552880669 436.5386271449599L1431.848552880669 585.0670370240962ZM1383.5146579678308 586.5386201762981L1383.5146579678308 586.5386201762981Q1372.83299405271 586.5386201762981 1363.648285413105 581.2358464037085Q1354.4889488968142 575.9330726311189 1348.8563375211447 565.1499202227429Q1343.249098268789 554.366767814367 1343.249098268789 537.8495155370663L1343.249098268789 537.8495155370663Q1343.249098268789 521.3068911364519 1349.6428733438734 508.74769009610816Q1356.0366484189574 496.18848905576436 1367.504848156807 489.10966665120696Q1378.9476757713421 482.03084424664956 1394.399298869462 482.03084424664956L1394.399298869462 482.03084424664956Q1403.8123566188915 482.03084424664956 1410.2061316939755 484.26359109826626Q1416.5999067690595 486.52171007319674 1418.3252111543998 488.0694095953401L1418.3252111543998 488.0694095953401L1410.840434776821 501.49126282835397Q1408.100245458928 499.1062832368543 1403.5840075090669 498.1928867975566Q1399.0423974358923 497.2794903582589 1392.8515993473188 497.2794903582589L1392.8515993473188 497.2794903582589Q1385.087729613288 497.2794903582589 1378.8208151547728 501.5927513216093Q1372.553900696258 505.88064016164583 1368.8241985691257 514.3803014717774Q1365.0691243186793 522.8545906585953 1364.993007948738 535.3884195756252L1364.993007948738 535.3884195756252Q1364.713914592286 553.2757665118725 1371.1838060373116 561.5978229588073Q1377.679069605651 569.8945072824283 1389.3756184533245 569.8945072824283L1389.3756184533245 569.8945072824283Q1396.5051851045096 569.8945072824283 1402.1124243568652 567.2558064577905Q1407.7196636092206 564.6171056331526 1410.840434776821 562.1306375483977L1410.840434776821 562.1306375483977L1414.3164156708153 572.55858023038Q1412.1090409425124 574.8420713286245 1408.4554551853216 578.1150752361079Q1404.8018694281307 581.4134512669053 1398.7886762027538 583.9760357216016Q1392.7501108540635 586.5386201762981 1383.5146579678308 586.5386201762981ZM1548.0275055346774 585.0670370240962L1526.4612007179253 585.0670370240962L1526.4612007179253 465.76731320248723L1484.6479414967407 465.76731320248723L1484.6479414967407 449.3261772951281L1589.7646483859207 449.3261772951281L1589.7646483859207 465.76731320248723L1548.0275055346774 465.76731320248723L1548.0275055346774 585.0670370240962ZM1631.5017912371643 585.0670370240962L1610.4936731333164 585.0670370240962L1610.4936731333164 436.5386271449599L1631.5017912371643 436.5386271449599L1631.5017912371643 478.37725848945865L1630.4107899346698 496.7466757686685L1629.4212771254306 494.36169617716894Q1633.0748628826216 491.4439019960789 1638.7328463816048 488.60222418493044Q1644.3908298805877 485.7859184970958 1650.9622098188688 483.9083813718727Q1657.5335897571495 482.03084424664956 1664.028853325489 481.8532393834528L1664.028853325489 481.8532393834528Q1680.647594096045 481.39654116380393 1688.183114720251 490.9872037764301Q1695.7186353444574 500.5778663890562 1695.7186353444574 522.8545906585953L1695.7186353444574 522.8545906585953L1695.7186353444574 585.0670370240962L1674.7105172406095 585.0670370240962L1674.7105172406095 522.6769857953985Q1674.7105172406095 510.1685290016824 1670.8285823735941 504.5866618726407Q1666.946647506579 499.03016686691285 1655.8082853718095 499.56298145650317L1655.8082853718095 499.56298145650317Q1650.9622098188688 499.66446994975854 1644.213225017391 501.84647255474755Q1637.4388680925995 504.05384728305035 1631.5017912371643 508.51934098628374L1631.5017912371643 508.51934098628374L1631.5017912371643 585.0670370240962ZM1765.3143695942817 586.5386201762981L1765.3143695942817 586.5386201762981Q1743.392855051136 586.5386201762981 1731.5187013402656 572.6346966003215Q1719.6445476293952 558.7561451476588 1719.6445476293952 534.0944412866202L1719.6445476293952 534.0944412866202Q1719.6445476293952 519.3024933946597 1724.8965771553571 507.605944546986Q1730.148606681319 495.9093956993123 1740.4243166234187 489.05892240457933Q1750.7000265655179 482.20844910984636 1765.6949514439889 482.03084424664956L1765.6949514439889 482.03084424664956Q1773.3573326847645 481.8532393834528 1780.131689609556 484.2382189749524Q1786.8806744110339 486.5978264431382 1792.081959690368 491.3931577494513Q1797.283244969702 496.18848905576436 1800.353271890675 503.4956605701462Q1803.4232988116478 510.80283208452806 1803.6770200447863 520.571099560351L1803.6770200447863 520.571099560351Q1803.6770200447863 526.3305715525894 1803.6009036748446 530.8468095024505Q1803.4994151815895 535.3884195756252 1802.7636236054886 538.8390283463056L1802.7636236054886 538.8390283463056L1731.8992831899732 538.8390283463056L1733.7260760685685 525.5186636065471L1783.9628802299435 525.5186636065471Q1784.4195784495928 518.2114920921651 1783.1002280372736 511.6654842771981Q1781.755505501641 505.1448485855449 1777.4168724149763 501.08530885533276Q1773.078239328312 497.02576912512063 1764.6039501414944 497.02576912512063L1764.6039501414944 497.02576912512063Q1757.4743834903093 497.02576912512063 1751.8163999913263 500.98382036207744Q1746.1330443690294 504.9672437223481 1743.0376453247427 514.3803014717774Q1739.942246280456 523.7679870978931 1740.4750608700463 540.1330066353107L1740.4750608700463 540.1330066353107Q1741.03324758295 551.6265784964737 1745.14353155979 558.29944692801Q1749.2538155366296 564.9723153595462 1755.926683968166 567.8139931706946Q1762.5741802763882 570.6302988585293 1770.7947482300679 570.6302988585293L1770.7947482300679 570.6302988585293Q1774.2707291240622 570.6302988585293 1779.2944095401995 569.8691351591145Q1784.3180899563372 569.0825993363859 1789.0373048927086 567.8393652940084Q1793.7311477057665 566.6215033749448 1796.1922436672075 565.1499202227429L1796.1922436672075 565.1499202227429L1800.2264112741059 577.2016787968101Q1796.8265467500532 579.9418681147034 1791.0417026345012 582.0477543497509Q1785.2314863956349 584.1536405847985 1778.4825015941574 585.3461303805483Q1771.708144669366 586.5386201762981 1765.3143695942817 586.5386201762981ZM1873.3742427878656 585.0670370240962L1862.7940673660005 585.0670370240962L1862.7940673660005 449.1485724319313L1872.8414281982755 449.3261772951281Q1877.3069219015088 449.3261772951281 1881.9753925912528 449.0217118153622Q1886.618491157683 448.6918742122824 1892.0227534235278 448.3874087325165Q1897.4016435660587 448.05757112943684 1904.074511997595 448.05757112943684L1904.074511997595 448.05757112943684Q1919.6783678355978 448.05757112943684 1929.7257286678728 452.0663666130213Q1939.7730895001478 456.1005342199196 1944.6191650530886 463.35696148767374Q1949.4652406060295 470.61338875542793 1949.4652406060295 480.3816562312509L1949.4652406060295 480.3816562312509Q1949.4652406060295 486.775431306335 1947.3086101243543 493.3721833679297Q1945.177351765993 499.9435633062106 1940.6103695695042 504.91649947572046Q1936.0433873730153 509.8894356452303 1928.812332228575 511.81771701708107L1928.812332228575 511.81771701708107Q1937.1343886755099 512.27441523673 1943.7565128604188 516.8921416798462Q1950.3786370453272 521.4844959996487 1954.31131615897 528.6648068974614Q1958.2439952726131 535.8451177952741 1958.2439952726131 544.2432906121504L1958.2439952726131 544.2432906121504Q1958.2439952726131 556.5741425426697 1953.296431226417 566.0633166620406Q1948.374239303535 575.5778629047253 1936.398597099409 580.9567530472564Q1924.4483270185974 586.3356431897874 1903.2372319282385 586.3356431897874L1903.2372319282385 586.3356431897874Q1895.2957573310114 586.3356431897874 1886.7960960208798 585.8535728468248Q1878.321806834062 585.3461303805483 1873.3742427878656 585.0670370240962L1873.3742427878656 585.0670370240962ZM1883.979790333045 464.3972185435406L1883.979790333045 507.3268511905339Q1886.440886294486 507.7074330402413 1889.460168968831 507.8342936568104Q1892.4794516431766 507.98652639669336 1895.6763391807185 507.93578215006573Q1898.8732267182609 507.88503790343805 1901.8417651459786 507.8342936568104Q1904.8103035736958 507.7835494101828 1907.2713995351373 507.7835494101828L1907.2713995351373 507.7835494101828Q1916.582968791311 507.7835494101828 1922.6469062633155 501.7703561848061Q1928.7362158586338 495.7317908361155 1928.7362158586338 483.3248225356547L1928.7362158586338 483.3248225356547Q1928.7362158586338 472.9983683469276 1921.429044344252 468.05080430073156Q1914.12187282987 463.1286123778493 1900.4970426103455 463.1286123778493L1900.4970426103455 463.1286123778493Q1898.8732267182609 463.1286123778493 1895.3465015776392 463.2554729944185Q1891.819776437017 463.40770573430143 1888.5467725295334 463.6867990907535Q1885.2483964987364 463.94052032389175 1883.979790333045 464.3972185435406L1883.979790333045 464.3972185435406ZM1883.979790333045 523.3112888782441L1883.979790333045 568.9049944731892Q1885.5274898551884 569.8183909124868 1889.358680475576 570.2750891321358Q1893.189871095964 570.7317873517846 1897.6299926758834 570.8586479683537Q1902.0701142558028 571.0108807082366 1905.2670017933447 571.0108807082366L1905.2670017933447 571.0108807082366Q1919.9574611920502 571.0108807082366 1928.2795176389845 565.6066184423918Q1936.5762019626059 560.2277282998607 1936.5762019626059 546.4252932171395L1936.5762019626059 546.4252932171395Q1936.5762019626059 534.0944412866202 1929.1421698316549 528.4872020342646Q1921.708137700704 522.8545906585953 1905.977421246132 522.8545906585953L1905.977421246132 522.8545906585953Q1903.4402089147493 522.8545906585953 1900.3701819937764 522.8292185352815Q1897.3001550728036 522.7784742886538 1894.2555002751446 522.8292185352815Q1891.1854733541713 522.8545906585953 1888.5467725295334 522.9560791518506Q1885.882699581582 523.0575676451059 1883.979790333045 523.3112888782441L1883.979790333045 523.3112888782441ZM2010.4851971757807 586.5386201762981L2010.4851971757807 586.5386201762981Q2000.513952713447 586.5386201762981 1994.3992709948147 583.4178490086975Q1988.284589276183 580.3224499644108 1985.0877017386406 574.5122337255447Q1981.8908142010987 568.7273896099924 1980.7490686519768 560.6844265195095Q1979.6073231028545 552.6414634290268 1979.6073231028545 542.8731959532039L1979.6073231028545 542.8731959532039L1979.6073231028545 483.3248225356547L2000.6154412067021 483.3248225356547L2000.6154412067021 542.6955910900072Q2000.6154412067021 554.7473496640744 2002.4929783319253 560.4053331630575Q2004.3705154571485 566.0633166620406 2008.3285666941051 567.7125046774394Q2012.311990054376 569.361692692838 2018.70576512946 569.361692692838L2018.70576512946 569.361692692838Q2022.4354672565923 569.361692692838 2026.6979839733153 568.2199471437158Q2030.935128566724 567.0782015945937 2034.6902028171703 565.4797578258226Q2038.4199049443027 563.8813140570517 2040.6272796726057 562.4097309048498L2040.6272796726057 562.4097309048498L2040.6272796726057 483.3248225356547L2061.6353977764534 483.3248225356547L2061.6353977764534 586.5386201762981L2051.943246670572 586.5386201762981Q2047.7568463237903 586.5386201762981 2045.2703782390354 585.2953861339206Q2042.8092822775948 584.0521520915431 2042.8092822775948 579.0284716754056L2042.8092822775948 579.0284716754056L2042.8092822775948 571.9242771475344L2043.189864127302 575.9330726311189Q2039.0795801504623 578.673261949012 2033.5484572680484 581.0836136638255Q2028.017334385634 583.5193375019528 2021.9787690369435 585.0162927774685Q2015.9655758115669 586.5386201762981 2010.4851971757807 586.5386201762981ZM2163.0224025385014 585.0670370240962L2086.6523113638855 585.0670370240962L2082.821120743498 577.7598655097144L2131.231132026278 506.51494324449146L2136.533905798867 499.03016686691285L2088.3014993792845 499.03016686691285L2088.3014993792845 483.3248225356547L2161.728424249496 483.3248225356547L2164.849195417097 491.9006002157278L2116.7943938607104 562.4097309048498L2111.4916200881207 569.8945072824283L2163.0224025385014 569.8945072824283L2163.0224025385014 585.0670370240962ZM2256.72165393646 585.0670370240962L2180.376934885158 585.0670370240962L2176.5457442647703 577.7598655097144L2224.9557555475503 506.51494324449146L2230.2331571968257 499.03016686691285L2182.026122900557 499.03016686691285L2182.026122900557 483.3248225356547L2255.4530477707685 483.3248225356547L2258.5484468150553 491.9006002157278L2210.5190173819833 562.4097309048498L2205.2162436093936 569.8945072824283L2256.72165393646 569.8945072824283L2256.72165393646 585.0670370240962Z " fill="#f2f2f2" transform="matrix(0.3874169692415897,0,0,0.3874169692415897,0,101.82124494770981)"/></g></svg>